<?xml version="1.0" encoding="UTF-8"?><svg id="Layer_2" xmlns="http://www.w3.org/2000/svg" viewBox="0 0 288.06 1045"><defs><style>.cls-1{fill:#fff;}.cls-2{fill:#ccc;}</style></defs><g id="Layer_1-2"><g><rect class="cls-1" width="288.06" height="1045"/><g><path class="cls-2" d="M71.46,23.5v.93c-.03,.25-.07,.5-.1,.75-.19,1.75-.79,3.31-1.87,4.59-4.12,4.9-8.27,9.77-12.4,14.66-.06,.07-.12,.13-.21,.23-.05-.07-.08-.12-.12-.17-4.12-4.91-8.23-9.81-12.35-14.72-.87-1.04-1.47-2.26-1.77-3.65-.1-.45-.15-.91-.22-1.36,0-.42,0-.84,0-1.26,.01-.08,.04-.16,.04-.24,.42-4.57,4.1-7.86,8.13-7.27,3.21,.47,5.75,3.25,6.25,6.86,.01,.08,.04,.15,.06,.23,.02,0,.04,0,.07,0,.02-.07,.04-.15,.05-.22,.6-4.37,4.19-7.42,8.09-6.86,2.88,.41,5.27,2.73,6.05,5.88,.13,.53,.19,1.08,.29,1.62Z"/><path class="cls-2" d="M129.51,23.5v.93c-.03,.25-.07,.5-.1,.75-.19,1.75-.79,3.31-1.87,4.59-4.12,4.9-8.27,9.77-12.4,14.66-.06,.07-.12,.13-.21,.23-.05-.07-.08-.12-.12-.17-4.12-4.91-8.23-9.81-12.35-14.72-.87-1.04-1.47-2.26-1.77-3.65-.1-.45-.15-.91-.22-1.36,0-.42,0-.84,0-1.26,.01-.08,.04-.16,.04-.24,.42-4.57,4.1-7.86,8.13-7.27,3.21,.47,5.75,3.25,6.25,6.86,.01,.08,.04,.15,.06,.23,.02,0,.04,0,.07,0,.02-.07,.04-.15,.05-.22,.6-4.37,4.19-7.42,8.09-6.86,2.88,.41,5.27,2.73,6.05,5.88,.13,.53,.19,1.08,.29,1.62Z"/><path class="cls-2" d="M187.57,23.5v.93c-.03,.25-.07,.5-.1,.75-.19,1.75-.79,3.31-1.87,4.59-4.12,4.9-8.27,9.77-12.4,14.66-.06,.07-.12,.13-.21,.23-.05-.07-.08-.12-.12-.17-4.12-4.91-8.23-9.81-12.35-14.72-.87-1.04-1.47-2.26-1.77-3.65-.1-.45-.15-.91-.22-1.36,0-.42,0-.84,0-1.26,.01-.08,.04-.16,.04-.24,.42-4.57,4.1-7.86,8.13-7.27,3.21,.47,5.75,3.25,6.25,6.86,.01,.08,.04,.15,.06,.23,.02,0,.04,0,.07,0,.02-.07,.04-.15,.05-.22,.6-4.37,4.19-7.42,8.09-6.86,2.88,.41,5.27,2.73,6.05,5.88,.13,.53,.19,1.08,.29,1.62Z"/><path class="cls-2" d="M245.63,23.5v.93c-.03,.25-.07,.5-.1,.75-.19,1.75-.79,3.31-1.87,4.59-4.12,4.9-8.27,9.77-12.4,14.66-.06,.07-.12,.13-.21,.23-.05-.07-.08-.12-.12-.17-4.12-4.91-8.23-9.81-12.35-14.72-.87-1.04-1.47-2.26-1.77-3.65-.1-.45-.15-.91-.22-1.36,0-.42,0-.84,0-1.26,.01-.08,.04-.16,.04-.24,.42-4.57,4.1-7.86,8.13-7.27,3.21,.47,5.75,3.25,6.25,6.86,.01,.08,.04,.15,.06,.23,.02,0,.04,0,.07,0,.02-.07,.04-.15,.05-.22,.6-4.37,4.19-7.42,8.09-6.86,2.88,.41,5.27,2.73,6.05,5.88,.13,.53,.19,1.08,.29,1.62Z"/><path class="cls-2" d="M42.43,81.56v.93c-.03,.25-.07,.5-.1,.75-.19,1.75-.79,3.31-1.87,4.59-4.12,4.9-8.27,9.77-12.4,14.66-.06,.07-.12,.13-.21,.23-.05-.07-.08-.12-.12-.17-4.12-4.91-8.23-9.81-12.35-14.72-.87-1.04-1.47-2.26-1.77-3.65-.1-.45-.15-.91-.22-1.36,0-.42,0-.84,0-1.26,.01-.08,.04-.16,.04-.24,.42-4.57,4.1-7.86,8.13-7.27,3.21,.47,5.75,3.25,6.25,6.86,.01,.08,.04,.15,.06,.23,.02,0,.04,0,.07,0,.02-.07,.04-.15,.05-.22,.6-4.37,4.19-7.42,8.09-6.86,2.88,.41,5.27,2.73,6.05,5.88,.13,.53,.19,1.08,.29,1.62Z"/><path class="cls-2" d="M100.49,81.56v.93c-.03,.25-.07,.5-.1,.75-.19,1.75-.79,3.31-1.87,4.59-4.12,4.9-8.27,9.77-12.4,14.66-.06,.07-.12,.13-.21,.23-.05-.07-.08-.12-.12-.17-4.12-4.91-8.23-9.81-12.35-14.72-.87-1.04-1.47-2.26-1.77-3.65-.1-.45-.15-.91-.22-1.36,0-.42,0-.84,0-1.26,.01-.08,.04-.16,.04-.24,.42-4.57,4.1-7.86,8.13-7.27,3.21,.47,5.75,3.25,6.25,6.86,.01,.08,.04,.15,.06,.23,.02,0,.04,0,.07,0,.02-.07,.04-.15,.05-.22,.6-4.37,4.19-7.42,8.09-6.86,2.88,.41,5.27,2.73,6.05,5.88,.13,.53,.19,1.08,.29,1.62Z"/><path class="cls-2" d="M158.54,81.56v.93c-.03,.25-.07,.5-.1,.75-.19,1.75-.79,3.31-1.87,4.59-4.12,4.9-8.27,9.77-12.4,14.66-.06,.07-.12,.13-.21,.23-.05-.07-.08-.12-.12-.17-4.12-4.91-8.23-9.81-12.35-14.72-.87-1.04-1.47-2.26-1.77-3.65-.1-.45-.15-.91-.22-1.36,0-.42,0-.84,0-1.26,.01-.08,.04-.16,.04-.24,.42-4.57,4.1-7.86,8.13-7.27,3.21,.47,5.75,3.25,6.25,6.86,.01,.08,.04,.15,.06,.23,.02,0,.04,0,.07,0,.02-.07,.04-.15,.05-.22,.6-4.37,4.19-7.42,8.09-6.86,2.88,.41,5.27,2.73,6.05,5.88,.13,.53,.19,1.08,.29,1.62Z"/><path class="cls-2" d="M216.6,81.56v.93c-.03,.25-.07,.5-.1,.75-.19,1.75-.79,3.31-1.87,4.59-4.12,4.9-8.27,9.77-12.4,14.66-.06,.07-.12,.13-.21,.23-.05-.07-.08-.12-.12-.17-4.12-4.91-8.23-9.81-12.35-14.72-.87-1.04-1.47-2.26-1.77-3.65-.1-.45-.15-.91-.22-1.36,0-.42,0-.84,0-1.26,.01-.08,.04-.16,.04-.24,.42-4.57,4.1-7.86,8.13-7.27,3.21,.47,5.75,3.25,6.25,6.86,.01,.08,.04,.15,.06,.23,.02,0,.04,0,.07,0,.02-.07,.04-.15,.05-.22,.6-4.37,4.19-7.42,8.09-6.86,2.88,.41,5.27,2.73,6.05,5.88,.13,.53,.19,1.08,.29,1.62Z"/><path class="cls-2" d="M274.66,81.56v.93c-.03,.25-.07,.5-.1,.75-.19,1.75-.79,3.31-1.87,4.59-4.12,4.9-8.27,9.77-12.4,14.66-.06,.07-.12,.13-.21,.23-.05-.07-.08-.12-.12-.17-4.12-4.91-8.23-9.81-12.35-14.72-.87-1.04-1.47-2.26-1.77-3.65-.1-.45-.15-.91-.22-1.36,0-.42,0-.84,0-1.26,.01-.08,.04-.16,.04-.24,.42-4.57,4.1-7.86,8.13-7.27,3.21,.47,5.75,3.25,6.25,6.86,.01,.08,.04,.15,.06,.23,.02,0,.04,0,.07,0,.02-.07,.04-.15,.05-.22,.6-4.37,4.19-7.42,8.09-6.86,2.88,.41,5.27,2.73,6.05,5.88,.13,.53,.19,1.08,.29,1.62Z"/><path class="cls-2" d="M71.46,139.62v.93c-.03,.25-.07,.5-.1,.75-.19,1.75-.79,3.31-1.87,4.59-4.12,4.9-8.27,9.77-12.4,14.66-.06,.07-.12,.13-.21,.23-.05-.07-.08-.12-.12-.17-4.12-4.91-8.23-9.81-12.35-14.72-.87-1.04-1.47-2.26-1.77-3.65-.1-.45-.15-.91-.22-1.36,0-.42,0-.84,0-1.26,.01-.08,.04-.16,.04-.24,.42-4.57,4.1-7.86,8.13-7.27,3.21,.47,5.75,3.25,6.25,6.86,.01,.08,.04,.15,.06,.23,.02,0,.04,0,.07,0,.02-.07,.04-.15,.05-.22,.6-4.37,4.19-7.42,8.09-6.86,2.88,.41,5.27,2.73,6.05,5.88,.13,.53,.19,1.08,.29,1.62Z"/><path class="cls-2" d="M129.51,139.62v.93c-.03,.25-.07,.5-.1,.75-.19,1.75-.79,3.31-1.87,4.59-4.12,4.9-8.27,9.77-12.4,14.66-.06,.07-.12,.13-.21,.23-.05-.07-.08-.12-.12-.17-4.12-4.91-8.23-9.81-12.35-14.72-.87-1.04-1.47-2.26-1.77-3.65-.1-.45-.15-.91-.22-1.36,0-.42,0-.84,0-1.26,.01-.08,.04-.16,.04-.24,.42-4.57,4.1-7.86,8.13-7.27,3.21,.47,5.75,3.25,6.25,6.86,.01,.08,.04,.15,.06,.23,.02,0,.04,0,.07,0,.02-.07,.04-.15,.05-.22,.6-4.37,4.19-7.42,8.09-6.86,2.88,.41,5.27,2.73,6.05,5.88,.13,.53,.19,1.08,.29,1.62Z"/><path class="cls-2" d="M187.57,139.62v.93c-.03,.25-.07,.5-.1,.75-.19,1.75-.79,3.31-1.87,4.59-4.12,4.9-8.27,9.77-12.4,14.66-.06,.07-.12,.13-.21,.23-.05-.07-.08-.12-.12-.17-4.12-4.91-8.23-9.81-12.35-14.72-.87-1.04-1.47-2.26-1.77-3.65-.1-.45-.15-.91-.22-1.36,0-.42,0-.84,0-1.26,.01-.08,.04-.16,.04-.24,.42-4.57,4.1-7.86,8.13-7.27,3.21,.47,5.75,3.25,6.25,6.86,.01,.08,.04,.15,.06,.23,.02,0,.04,0,.07,0,.02-.07,.04-.15,.05-.22,.6-4.37,4.19-7.42,8.09-6.86,2.88,.41,5.27,2.73,6.05,5.88,.13,.53,.19,1.08,.29,1.62Z"/><path class="cls-2" d="M245.63,139.62v.93c-.03,.25-.07,.5-.1,.75-.19,1.75-.79,3.31-1.87,4.59-4.12,4.9-8.27,9.77-12.4,14.66-.06,.07-.12,.13-.21,.23-.05-.07-.08-.12-.12-.17-4.12-4.91-8.23-9.81-12.35-14.72-.87-1.04-1.47-2.26-1.77-3.65-.1-.45-.15-.91-.22-1.36,0-.42,0-.84,0-1.26,.01-.08,.04-.16,.04-.24,.42-4.57,4.1-7.86,8.13-7.27,3.21,.47,5.75,3.25,6.25,6.86,.01,.08,.04,.15,.06,.23,.02,0,.04,0,.07,0,.02-.07,.04-.15,.05-.22,.6-4.37,4.19-7.42,8.09-6.86,2.88,.41,5.27,2.73,6.05,5.88,.13,.53,.19,1.08,.29,1.62Z"/><path class="cls-2" d="M42.43,197.68v.93c-.03,.25-.07,.5-.1,.75-.19,1.75-.79,3.31-1.87,4.59-4.12,4.9-8.27,9.77-12.4,14.66-.06,.07-.12,.13-.21,.23-.05-.07-.08-.12-.12-.17-4.12-4.91-8.23-9.81-12.35-14.72-.87-1.04-1.47-2.26-1.77-3.65-.1-.45-.15-.91-.22-1.36,0-.42,0-.84,0-1.26,.01-.08,.04-.16,.04-.24,.42-4.57,4.1-7.86,8.13-7.27,3.21,.47,5.75,3.25,6.25,6.86,.01,.08,.04,.15,.06,.23,.02,0,.04,0,.07,0,.02-.07,.04-.15,.05-.22,.6-4.37,4.19-7.42,8.09-6.86,2.88,.41,5.27,2.73,6.05,5.88,.13,.53,.19,1.08,.29,1.62Z"/><path class="cls-2" d="M100.49,197.68v.93c-.03,.25-.07,.5-.1,.75-.19,1.75-.79,3.31-1.87,4.59-4.12,4.9-8.27,9.77-12.4,14.66-.06,.07-.12,.13-.21,.23-.05-.07-.08-.12-.12-.17-4.12-4.91-8.23-9.81-12.35-14.72-.87-1.04-1.47-2.26-1.77-3.65-.1-.45-.15-.91-.22-1.36,0-.42,0-.84,0-1.26,.01-.08,.04-.16,.04-.24,.42-4.57,4.1-7.86,8.13-7.27,3.21,.47,5.75,3.25,6.25,6.86,.01,.08,.04,.15,.06,.23,.02,0,.04,0,.07,0,.02-.07,.04-.15,.05-.22,.6-4.37,4.19-7.42,8.09-6.86,2.88,.41,5.27,2.73,6.05,5.88,.13,.53,.19,1.08,.29,1.62Z"/><path class="cls-2" d="M158.54,197.68v.93c-.03,.25-.07,.5-.1,.75-.19,1.75-.79,3.31-1.87,4.59-4.12,4.9-8.27,9.77-12.4,14.66-.06,.07-.12,.13-.21,.23-.05-.07-.08-.12-.12-.17-4.12-4.91-8.23-9.81-12.35-14.72-.87-1.04-1.47-2.26-1.77-3.65-.1-.45-.15-.91-.22-1.36,0-.42,0-.84,0-1.26,.01-.08,.04-.16,.04-.24,.42-4.57,4.1-7.86,8.13-7.27,3.21,.47,5.75,3.25,6.25,6.86,.01,.08,.04,.15,.06,.23,.02,0,.04,0,.07,0,.02-.07,.04-.15,.05-.22,.6-4.37,4.19-7.42,8.09-6.86,2.88,.41,5.27,2.73,6.05,5.88,.13,.53,.19,1.08,.29,1.62Z"/><path class="cls-2" d="M216.6,197.68v.93c-.03,.25-.07,.5-.1,.75-.19,1.75-.79,3.31-1.87,4.59-4.12,4.9-8.27,9.77-12.4,14.66-.06,.07-.12,.13-.21,.23-.05-.07-.08-.12-.12-.17-4.12-4.91-8.23-9.81-12.35-14.72-.87-1.04-1.47-2.26-1.77-3.65-.1-.45-.15-.91-.22-1.36,0-.42,0-.84,0-1.26,.01-.08,.04-.16,.04-.24,.42-4.57,4.1-7.86,8.13-7.27,3.21,.47,5.75,3.25,6.25,6.86,.01,.08,.04,.15,.06,.23,.02,0,.04,0,.07,0,.02-.07,.04-.15,.05-.22,.6-4.37,4.19-7.42,8.09-6.86,2.88,.41,5.27,2.73,6.05,5.88,.13,.53,.19,1.08,.29,1.62Z"/><path class="cls-2" d="M274.66,197.68v.93c-.03,.25-.07,.5-.1,.75-.19,1.75-.79,3.31-1.87,4.59-4.12,4.9-8.27,9.77-12.4,14.66-.06,.07-.12,.13-.21,.23-.05-.07-.08-.12-.12-.17-4.12-4.91-8.23-9.81-12.35-14.72-.87-1.04-1.47-2.26-1.77-3.65-.1-.45-.15-.91-.22-1.36,0-.42,0-.84,0-1.26,.01-.08,.04-.16,.04-.24,.42-4.57,4.1-7.86,8.13-7.27,3.21,.47,5.75,3.25,6.25,6.86,.01,.08,.04,.15,.06,.23,.02,0,.04,0,.07,0,.02-.07,.04-.15,.05-.22,.6-4.37,4.19-7.42,8.09-6.86,2.88,.41,5.27,2.73,6.05,5.88,.13,.53,.19,1.08,.29,1.62Z"/><path class="cls-2" d="M71.46,255.74v.93c-.03,.25-.07,.5-.1,.75-.19,1.75-.79,3.31-1.87,4.59-4.12,4.9-8.27,9.77-12.4,14.66-.06,.07-.12,.13-.21,.23-.05-.07-.08-.12-.12-.17-4.12-4.91-8.23-9.81-12.35-14.72-.87-1.04-1.47-2.26-1.77-3.65-.1-.45-.15-.91-.22-1.36,0-.42,0-.84,0-1.26,.01-.08,.04-.16,.04-.24,.42-4.57,4.1-7.86,8.13-7.27,3.21,.47,5.75,3.25,6.25,6.86,.01,.08,.04,.15,.06,.23,.02,0,.04,0,.07,0,.02-.07,.04-.15,.05-.22,.6-4.37,4.19-7.42,8.09-6.86,2.88,.41,5.27,2.73,6.05,5.88,.13,.53,.19,1.08,.29,1.62Z"/><path class="cls-2" d="M129.51,255.74v.93c-.03,.25-.07,.5-.1,.75-.19,1.75-.79,3.31-1.87,4.59-4.12,4.9-8.27,9.77-12.4,14.66-.06,.07-.12,.13-.21,.23-.05-.07-.08-.12-.12-.17-4.12-4.91-8.23-9.81-12.35-14.72-.87-1.04-1.47-2.26-1.77-3.65-.1-.45-.15-.91-.22-1.36,0-.42,0-.84,0-1.26,.01-.08,.04-.16,.04-.24,.42-4.57,4.1-7.86,8.13-7.27,3.21,.47,5.75,3.25,6.25,6.86,.01,.08,.04,.15,.06,.23,.02,0,.04,0,.07,0,.02-.07,.04-.15,.05-.22,.6-4.37,4.19-7.42,8.09-6.86,2.88,.41,5.27,2.73,6.05,5.88,.13,.53,.19,1.08,.29,1.62Z"/><path class="cls-2" d="M187.57,255.74v.93c-.03,.25-.07,.5-.1,.75-.19,1.75-.79,3.31-1.87,4.59-4.12,4.9-8.27,9.77-12.4,14.66-.06,.07-.12,.13-.21,.23-.05-.07-.08-.12-.12-.17-4.12-4.91-8.23-9.81-12.35-14.72-.87-1.04-1.47-2.26-1.77-3.65-.1-.45-.15-.91-.22-1.36,0-.42,0-.84,0-1.26,.01-.08,.04-.16,.04-.24,.42-4.57,4.1-7.86,8.13-7.27,3.21,.47,5.75,3.25,6.25,6.86,.01,.08,.04,.15,.06,.23,.02,0,.04,0,.07,0,.02-.07,.04-.15,.05-.22,.6-4.37,4.19-7.42,8.09-6.86,2.88,.41,5.27,2.73,6.05,5.88,.13,.53,.19,1.08,.29,1.62Z"/><path class="cls-2" d="M245.63,255.74v.93c-.03,.25-.07,.5-.1,.75-.19,1.75-.79,3.31-1.87,4.59-4.12,4.9-8.27,9.77-12.4,14.66-.06,.07-.12,.13-.21,.23-.05-.07-.08-.12-.12-.17-4.12-4.91-8.23-9.81-12.35-14.72-.87-1.04-1.47-2.26-1.77-3.65-.1-.45-.15-.91-.22-1.36,0-.42,0-.84,0-1.26,.01-.08,.04-.16,.04-.24,.42-4.57,4.1-7.86,8.13-7.27,3.21,.47,5.75,3.25,6.25,6.86,.01,.08,.04,.15,.06,.23,.02,0,.04,0,.07,0,.02-.07,.04-.15,.05-.22,.6-4.37,4.19-7.42,8.09-6.86,2.88,.41,5.27,2.73,6.05,5.88,.13,.53,.19,1.08,.29,1.62Z"/><path class="cls-2" d="M42.43,313.8v.93c-.03,.25-.07,.5-.1,.75-.19,1.75-.79,3.31-1.87,4.59-4.12,4.9-8.27,9.77-12.4,14.66-.06,.07-.12,.13-.21,.23-.05-.07-.08-.12-.12-.17-4.12-4.91-8.23-9.81-12.35-14.72-.87-1.04-1.47-2.26-1.77-3.65-.1-.45-.15-.91-.22-1.36,0-.42,0-.84,0-1.26,.01-.08,.04-.16,.04-.24,.42-4.57,4.1-7.86,8.13-7.27,3.21,.47,5.75,3.25,6.25,6.86,.01,.08,.04,.15,.06,.23,.02,0,.04,0,.07,0,.02-.07,.04-.15,.05-.22,.6-4.37,4.19-7.42,8.09-6.86,2.88,.41,5.27,2.73,6.05,5.88,.13,.53,.19,1.08,.29,1.62Z"/><path class="cls-2" d="M100.49,313.8v.93c-.03,.25-.07,.5-.1,.75-.19,1.75-.79,3.31-1.87,4.59-4.12,4.9-8.27,9.77-12.4,14.66-.06,.07-.12,.13-.21,.23-.05-.07-.08-.12-.12-.17-4.12-4.91-8.23-9.81-12.35-14.72-.87-1.04-1.47-2.26-1.77-3.65-.1-.45-.15-.91-.22-1.36,0-.42,0-.84,0-1.26,.01-.08,.04-.16,.04-.24,.42-4.57,4.1-7.86,8.13-7.27,3.21,.47,5.75,3.25,6.25,6.86,.01,.08,.04,.15,.06,.23,.02,0,.04,0,.07,0,.02-.07,.04-.15,.05-.22,.6-4.37,4.19-7.42,8.09-6.86,2.88,.41,5.27,2.73,6.05,5.88,.13,.53,.19,1.08,.29,1.62Z"/><path class="cls-2" d="M158.54,313.8v.93c-.03,.25-.07,.5-.1,.75-.19,1.75-.79,3.31-1.87,4.59-4.12,4.9-8.27,9.77-12.4,14.66-.06,.07-.12,.13-.21,.23-.05-.07-.08-.12-.12-.17-4.12-4.91-8.23-9.81-12.35-14.72-.87-1.04-1.47-2.26-1.77-3.65-.1-.45-.15-.91-.22-1.36,0-.42,0-.84,0-1.26,.01-.08,.04-.16,.04-.24,.42-4.57,4.1-7.86,8.13-7.27,3.21,.47,5.75,3.25,6.25,6.86,.01,.08,.04,.15,.06,.23,.02,0,.04,0,.07,0,.02-.07,.04-.15,.05-.22,.6-4.37,4.19-7.42,8.09-6.86,2.88,.41,5.27,2.73,6.05,5.88,.13,.53,.19,1.08,.29,1.62Z"/><path class="cls-2" d="M216.6,313.8v.93c-.03,.25-.07,.5-.1,.75-.19,1.75-.79,3.31-1.87,4.59-4.12,4.9-8.27,9.77-12.4,14.66-.06,.07-.12,.13-.21,.23-.05-.07-.08-.12-.12-.17-4.12-4.91-8.23-9.81-12.35-14.72-.87-1.04-1.47-2.26-1.77-3.65-.1-.45-.15-.91-.22-1.36,0-.42,0-.84,0-1.26,.01-.08,.04-.16,.04-.24,.42-4.57,4.1-7.86,8.13-7.27,3.21,.47,5.75,3.25,6.25,6.86,.01,.08,.04,.15,.06,.23,.02,0,.04,0,.07,0,.02-.07,.04-.15,.05-.22,.6-4.37,4.19-7.42,8.09-6.86,2.88,.41,5.27,2.73,6.05,5.88,.13,.53,.19,1.08,.29,1.62Z"/><path class="cls-2" d="M274.66,313.8v.93c-.03,.25-.07,.5-.1,.75-.19,1.75-.79,3.31-1.87,4.59-4.12,4.9-8.27,9.77-12.4,14.66-.06,.07-.12,.13-.21,.23-.05-.07-.08-.12-.12-.17-4.12-4.91-8.23-9.81-12.35-14.72-.87-1.04-1.47-2.26-1.77-3.65-.1-.45-.15-.91-.22-1.36,0-.42,0-.84,0-1.26,.01-.08,.04-.16,.04-.24,.42-4.57,4.1-7.86,8.13-7.27,3.21,.47,5.75,3.25,6.25,6.86,.01,.08,.04,.15,.06,.23,.02,0,.04,0,.07,0,.02-.07,.04-.15,.05-.22,.6-4.37,4.19-7.42,8.09-6.86,2.88,.41,5.27,2.73,6.05,5.88,.13,.53,.19,1.08,.29,1.62Z"/><path class="cls-2" d="M71.46,371.86v.93c-.03,.25-.07,.5-.1,.75-.19,1.75-.79,3.31-1.87,4.59-4.12,4.9-8.27,9.77-12.4,14.66-.06,.07-.12,.13-.21,.23-.05-.07-.08-.12-.12-.17-4.12-4.91-8.23-9.81-12.35-14.72-.87-1.04-1.47-2.26-1.77-3.65-.1-.45-.15-.91-.22-1.36,0-.42,0-.84,0-1.26,.01-.08,.04-.16,.04-.24,.42-4.57,4.1-7.86,8.13-7.27,3.21,.47,5.75,3.25,6.25,6.86,.01,.08,.04,.15,.06,.23,.02,0,.04,0,.07,0,.02-.07,.04-.15,.05-.22,.6-4.37,4.19-7.42,8.09-6.86,2.88,.41,5.27,2.73,6.05,5.88,.13,.53,.19,1.08,.29,1.62Z"/><path class="cls-2" d="M129.51,371.86v.93c-.03,.25-.07,.5-.1,.75-.19,1.75-.79,3.31-1.87,4.59-4.12,4.9-8.27,9.77-12.4,14.66-.06,.07-.12,.13-.21,.23-.05-.07-.08-.12-.12-.17-4.12-4.91-8.23-9.81-12.35-14.72-.87-1.04-1.47-2.26-1.77-3.65-.1-.45-.15-.91-.22-1.36,0-.42,0-.84,0-1.26,.01-.08,.04-.16,.04-.24,.42-4.57,4.1-7.86,8.13-7.27,3.21,.47,5.75,3.25,6.25,6.86,.01,.08,.04,.15,.06,.23,.02,0,.04,0,.07,0,.02-.07,.04-.15,.05-.22,.6-4.37,4.19-7.42,8.09-6.86,2.88,.41,5.27,2.73,6.05,5.88,.13,.53,.19,1.08,.29,1.62Z"/><path class="cls-2" d="M187.57,371.86v.93c-.03,.25-.07,.5-.1,.75-.19,1.75-.79,3.31-1.87,4.59-4.12,4.9-8.27,9.77-12.4,14.66-.06,.07-.12,.13-.21,.23-.05-.07-.08-.12-.12-.17-4.12-4.91-8.23-9.81-12.35-14.72-.87-1.04-1.47-2.26-1.77-3.65-.1-.45-.15-.91-.22-1.36,0-.42,0-.84,0-1.26,.01-.08,.04-.16,.04-.24,.42-4.57,4.1-7.86,8.13-7.27,3.21,.47,5.75,3.25,6.25,6.86,.01,.08,.04,.15,.06,.23,.02,0,.04,0,.07,0,.02-.07,.04-.15,.05-.22,.6-4.37,4.19-7.42,8.09-6.86,2.88,.41,5.27,2.73,6.05,5.88,.13,.53,.19,1.08,.29,1.62Z"/><path class="cls-2" d="M245.63,371.86v.93c-.03,.25-.07,.5-.1,.75-.19,1.75-.79,3.31-1.87,4.59-4.12,4.9-8.27,9.77-12.4,14.66-.06,.07-.12,.13-.21,.23-.05-.07-.08-.12-.12-.17-4.12-4.91-8.23-9.81-12.35-14.72-.87-1.04-1.47-2.26-1.77-3.65-.1-.45-.15-.91-.22-1.36,0-.42,0-.84,0-1.26,.01-.08,.04-.16,.04-.24,.42-4.57,4.1-7.86,8.13-7.27,3.21,.47,5.75,3.25,6.25,6.86,.01,.08,.04,.15,.06,.23,.02,0,.04,0,.07,0,.02-.07,.04-.15,.05-.22,.6-4.37,4.19-7.42,8.09-6.86,2.88,.41,5.27,2.73,6.05,5.88,.13,.53,.19,1.08,.29,1.62Z"/><path class="cls-2" d="M42.43,429.92v.93c-.03,.25-.07,.5-.1,.75-.19,1.75-.79,3.31-1.87,4.59-4.12,4.9-8.27,9.77-12.4,14.66-.06,.07-.12,.13-.21,.23-.05-.07-.08-.12-.12-.17-4.12-4.91-8.23-9.81-12.35-14.72-.87-1.04-1.47-2.26-1.77-3.65-.1-.45-.15-.91-.22-1.36,0-.42,0-.84,0-1.26,.01-.08,.04-.16,.04-.24,.42-4.57,4.1-7.86,8.13-7.27,3.21,.47,5.75,3.25,6.25,6.86,.01,.08,.04,.15,.06,.23,.02,0,.04,0,.07,0,.02-.07,.04-.15,.05-.22,.6-4.37,4.19-7.42,8.09-6.86,2.88,.41,5.27,2.73,6.05,5.88,.13,.53,.19,1.08,.29,1.62Z"/><path class="cls-2" d="M100.49,429.92v.93c-.03,.25-.07,.5-.1,.75-.19,1.75-.79,3.31-1.87,4.59-4.12,4.9-8.27,9.77-12.4,14.66-.06,.07-.12,.13-.21,.23-.05-.07-.08-.12-.12-.17-4.12-4.91-8.23-9.81-12.35-14.72-.87-1.04-1.47-2.26-1.77-3.65-.1-.45-.15-.91-.22-1.36,0-.42,0-.84,0-1.26,.01-.08,.04-.16,.04-.24,.42-4.57,4.1-7.86,8.13-7.27,3.21,.47,5.75,3.25,6.25,6.86,.01,.08,.04,.15,.06,.23,.02,0,.04,0,.07,0,.02-.07,.04-.15,.05-.22,.6-4.37,4.19-7.42,8.09-6.86,2.88,.41,5.27,2.73,6.05,5.88,.13,.53,.19,1.08,.29,1.62Z"/><path class="cls-2" d="M158.54,429.92v.93c-.03,.25-.07,.5-.1,.75-.19,1.75-.79,3.31-1.87,4.59-4.12,4.9-8.27,9.77-12.4,14.66-.06,.07-.12,.13-.21,.23-.05-.07-.08-.12-.12-.17-4.12-4.91-8.23-9.81-12.35-14.72-.87-1.04-1.47-2.26-1.77-3.65-.1-.45-.15-.91-.22-1.36,0-.42,0-.84,0-1.26,.01-.08,.04-.16,.04-.24,.42-4.57,4.1-7.86,8.13-7.27,3.21,.47,5.75,3.25,6.25,6.86,.01,.08,.04,.15,.06,.23,.02,0,.04,0,.07,0,.02-.07,.04-.15,.05-.22,.6-4.37,4.19-7.42,8.09-6.86,2.88,.41,5.27,2.73,6.05,5.88,.13,.53,.19,1.08,.29,1.62Z"/><path class="cls-2" d="M216.6,429.92v.93c-.03,.25-.07,.5-.1,.75-.19,1.75-.79,3.31-1.87,4.59-4.12,4.9-8.27,9.77-12.4,14.66-.06,.07-.12,.13-.21,.23-.05-.07-.08-.12-.12-.17-4.12-4.91-8.23-9.81-12.35-14.72-.87-1.04-1.47-2.26-1.77-3.65-.1-.45-.15-.91-.22-1.36,0-.42,0-.84,0-1.26,.01-.08,.04-.16,.04-.24,.42-4.57,4.1-7.86,8.13-7.27,3.21,.47,5.75,3.25,6.25,6.86,.01,.08,.04,.15,.06,.23,.02,0,.04,0,.07,0,.02-.07,.04-.15,.05-.22,.6-4.37,4.19-7.42,8.09-6.86,2.88,.41,5.27,2.73,6.05,5.88,.13,.53,.19,1.08,.29,1.62Z"/><path class="cls-2" d="M274.66,429.92v.93c-.03,.25-.07,.5-.1,.75-.19,1.75-.79,3.31-1.87,4.59-4.12,4.9-8.27,9.77-12.4,14.66-.06,.07-.12,.13-.21,.23-.05-.07-.08-.12-.12-.17-4.12-4.91-8.23-9.81-12.35-14.72-.87-1.04-1.47-2.26-1.77-3.65-.1-.45-.15-.91-.22-1.36,0-.42,0-.84,0-1.26,.01-.08,.04-.16,.04-.24,.42-4.57,4.1-7.86,8.13-7.27,3.21,.47,5.75,3.25,6.25,6.86,.01,.08,.04,.15,.06,.23,.02,0,.04,0,.07,0,.02-.07,.04-.15,.05-.22,.6-4.37,4.19-7.42,8.09-6.86,2.88,.41,5.27,2.73,6.05,5.88,.13,.53,.19,1.08,.29,1.62Z"/><path class="cls-2" d="M71.46,487.98v.93c-.03,.25-.07,.5-.1,.75-.19,1.75-.79,3.31-1.87,4.59-4.12,4.9-8.27,9.77-12.4,14.66-.06,.07-.12,.13-.21,.23-.05-.07-.08-.12-.12-.17-4.12-4.91-8.23-9.81-12.35-14.72-.87-1.04-1.47-2.26-1.77-3.65-.1-.45-.15-.91-.22-1.36,0-.42,0-.84,0-1.26,.01-.08,.04-.16,.04-.24,.42-4.57,4.1-7.86,8.13-7.27,3.21,.47,5.75,3.25,6.25,6.86,.01,.08,.04,.15,.06,.23,.02,0,.04,0,.07,0,.02-.07,.04-.15,.05-.22,.6-4.37,4.19-7.42,8.09-6.86,2.88,.41,5.27,2.73,6.05,5.88,.13,.53,.19,1.08,.29,1.62Z"/><path class="cls-2" d="M129.51,487.98v.93c-.03,.25-.07,.5-.1,.75-.19,1.75-.79,3.31-1.87,4.59-4.12,4.9-8.27,9.77-12.4,14.66-.06,.07-.12,.13-.21,.23-.05-.07-.08-.12-.12-.17-4.12-4.91-8.23-9.81-12.35-14.72-.87-1.04-1.47-2.26-1.77-3.65-.1-.45-.15-.91-.22-1.36,0-.42,0-.84,0-1.26,.01-.08,.04-.16,.04-.24,.42-4.57,4.1-7.86,8.13-7.27,3.21,.47,5.75,3.25,6.25,6.86,.01,.08,.04,.15,.06,.23,.02,0,.04,0,.07,0,.02-.07,.04-.15,.05-.22,.6-4.37,4.19-7.42,8.09-6.86,2.88,.41,5.27,2.73,6.05,5.88,.13,.53,.19,1.08,.29,1.62Z"/><path class="cls-2" d="M187.57,487.98v.93c-.03,.25-.07,.5-.1,.75-.19,1.75-.79,3.31-1.87,4.59-4.12,4.9-8.27,9.77-12.4,14.66-.06,.07-.12,.13-.21,.23-.05-.07-.08-.12-.12-.17-4.12-4.91-8.23-9.81-12.35-14.72-.87-1.04-1.47-2.26-1.77-3.65-.1-.45-.15-.91-.22-1.36,0-.42,0-.84,0-1.26,.01-.08,.04-.16,.04-.24,.42-4.57,4.1-7.86,8.13-7.27,3.21,.47,5.75,3.25,6.25,6.86,.01,.08,.04,.15,.06,.23,.02,0,.04,0,.07,0,.02-.07,.04-.15,.05-.22,.6-4.37,4.19-7.42,8.09-6.86,2.88,.41,5.27,2.73,6.05,5.88,.13,.53,.19,1.08,.29,1.62Z"/><path class="cls-2" d="M245.63,487.98v.93c-.03,.25-.07,.5-.1,.75-.19,1.75-.79,3.31-1.87,4.59-4.12,4.9-8.27,9.77-12.4,14.66-.06,.07-.12,.13-.21,.23-.05-.07-.08-.12-.12-.17-4.12-4.91-8.23-9.81-12.35-14.72-.87-1.04-1.47-2.26-1.77-3.65-.1-.45-.15-.91-.22-1.36,0-.42,0-.84,0-1.26,.01-.08,.04-.16,.04-.24,.42-4.57,4.1-7.86,8.13-7.27,3.21,.47,5.75,3.25,6.25,6.86,.01,.08,.04,.15,.06,.23,.02,0,.04,0,.07,0,.02-.07,.04-.15,.05-.22,.6-4.37,4.19-7.42,8.09-6.86,2.88,.41,5.27,2.73,6.05,5.88,.13,.53,.19,1.08,.29,1.62Z"/><path class="cls-2" d="M42.43,546.04v.93c-.03,.25-.07,.5-.1,.75-.19,1.75-.79,3.31-1.87,4.59-4.12,4.9-8.27,9.77-12.4,14.66-.06,.07-.12,.13-.21,.23-.05-.07-.08-.12-.12-.17-4.12-4.91-8.23-9.81-12.35-14.72-.87-1.04-1.47-2.26-1.77-3.65-.1-.45-.15-.91-.22-1.36,0-.42,0-.84,0-1.26,.01-.08,.04-.16,.04-.24,.42-4.57,4.1-7.86,8.13-7.27,3.21,.47,5.75,3.25,6.25,6.86,.01,.08,.04,.15,.06,.23,.02,0,.04,0,.07,0,.02-.07,.04-.15,.05-.22,.6-4.37,4.19-7.42,8.09-6.86,2.88,.41,5.27,2.73,6.05,5.88,.13,.53,.19,1.08,.29,1.62Z"/><path class="cls-2" d="M100.49,546.04v.93c-.03,.25-.07,.5-.1,.75-.19,1.75-.79,3.31-1.87,4.59-4.12,4.9-8.27,9.77-12.4,14.66-.06,.07-.12,.13-.21,.23-.05-.07-.08-.12-.12-.17-4.12-4.91-8.23-9.81-12.35-14.72-.87-1.04-1.47-2.26-1.77-3.65-.1-.45-.15-.91-.22-1.36,0-.42,0-.84,0-1.26,.01-.08,.04-.16,.04-.24,.42-4.57,4.1-7.86,8.13-7.27,3.21,.47,5.75,3.25,6.25,6.86,.01,.08,.04,.15,.06,.23,.02,0,.04,0,.07,0,.02-.07,.04-.15,.05-.22,.6-4.37,4.19-7.42,8.09-6.86,2.88,.41,5.27,2.73,6.05,5.88,.13,.53,.19,1.08,.29,1.62Z"/><path class="cls-2" d="M158.54,546.04v.93c-.03,.25-.07,.5-.1,.75-.19,1.75-.79,3.31-1.87,4.59-4.12,4.9-8.27,9.77-12.4,14.66-.06,.07-.12,.13-.21,.23-.05-.07-.08-.12-.12-.17-4.12-4.91-8.23-9.81-12.35-14.72-.87-1.04-1.47-2.26-1.77-3.65-.1-.45-.15-.91-.22-1.36,0-.42,0-.84,0-1.26,.01-.08,.04-.16,.04-.24,.42-4.57,4.1-7.86,8.13-7.27,3.21,.47,5.75,3.25,6.25,6.86,.01,.08,.04,.15,.06,.23,.02,0,.04,0,.07,0,.02-.07,.04-.15,.05-.22,.6-4.37,4.19-7.42,8.09-6.86,2.88,.41,5.27,2.73,6.05,5.88,.13,.53,.19,1.08,.29,1.62Z"/><path class="cls-2" d="M216.6,546.04v.93c-.03,.25-.07,.5-.1,.75-.19,1.75-.79,3.31-1.87,4.59-4.12,4.9-8.27,9.77-12.4,14.66-.06,.07-.12,.13-.21,.23-.05-.07-.08-.12-.12-.17-4.12-4.91-8.23-9.81-12.35-14.72-.87-1.04-1.47-2.26-1.77-3.65-.1-.45-.15-.91-.22-1.36,0-.42,0-.84,0-1.26,.01-.08,.04-.16,.04-.24,.42-4.57,4.1-7.86,8.13-7.27,3.21,.47,5.75,3.25,6.25,6.86,.01,.08,.04,.15,.06,.23,.02,0,.04,0,.07,0,.02-.07,.04-.15,.05-.22,.6-4.37,4.19-7.42,8.09-6.86,2.88,.41,5.27,2.73,6.05,5.88,.13,.53,.19,1.08,.29,1.62Z"/><path class="cls-2" d="M274.66,546.04v.93c-.03,.25-.07,.5-.1,.75-.19,1.75-.79,3.31-1.87,4.59-4.12,4.9-8.27,9.77-12.4,14.66-.06,.07-.12,.13-.21,.23-.05-.07-.08-.12-.12-.17-4.12-4.91-8.23-9.81-12.35-14.72-.87-1.04-1.47-2.26-1.77-3.65-.1-.45-.15-.91-.22-1.36,0-.42,0-.84,0-1.26,.01-.08,.04-.16,.04-.24,.42-4.57,4.1-7.86,8.13-7.27,3.21,.47,5.75,3.25,6.25,6.86,.01,.08,.04,.15,.06,.23,.02,0,.04,0,.07,0,.02-.07,.04-.15,.05-.22,.6-4.37,4.19-7.42,8.09-6.86,2.88,.41,5.27,2.73,6.05,5.88,.13,.53,.19,1.08,.29,1.62Z"/><path class="cls-2" d="M71.46,604.1v.93c-.03,.25-.07,.5-.1,.75-.19,1.75-.79,3.31-1.87,4.59-4.12,4.9-8.27,9.77-12.4,14.66-.06,.07-.12,.13-.21,.23-.05-.07-.08-.12-.12-.17-4.12-4.91-8.23-9.81-12.35-14.72-.87-1.04-1.47-2.26-1.77-3.65-.1-.45-.15-.91-.22-1.36,0-.42,0-.84,0-1.26,.01-.08,.04-.16,.04-.24,.42-4.57,4.1-7.86,8.13-7.27,3.21,.47,5.75,3.25,6.25,6.86,.01,.08,.04,.15,.06,.23,.02,0,.04,0,.07,0,.02-.07,.04-.15,.05-.22,.6-4.37,4.19-7.42,8.09-6.86,2.88,.41,5.27,2.73,6.05,5.88,.13,.53,.19,1.08,.29,1.62Z"/><path class="cls-2" d="M129.51,604.1v.93c-.03,.25-.07,.5-.1,.75-.19,1.75-.79,3.31-1.87,4.59-4.12,4.9-8.27,9.77-12.4,14.66-.06,.07-.12,.13-.21,.23-.05-.07-.08-.12-.12-.17-4.12-4.91-8.23-9.81-12.35-14.72-.87-1.04-1.47-2.26-1.77-3.65-.1-.45-.15-.91-.22-1.36,0-.42,0-.84,0-1.26,.01-.08,.04-.16,.04-.24,.42-4.57,4.1-7.86,8.13-7.27,3.21,.47,5.75,3.25,6.25,6.86,.01,.08,.04,.15,.06,.23,.02,0,.04,0,.07,0,.02-.07,.04-.15,.05-.22,.6-4.37,4.19-7.42,8.09-6.86,2.88,.41,5.27,2.73,6.05,5.88,.13,.53,.19,1.08,.29,1.62Z"/><path class="cls-2" d="M187.57,604.1v.93c-.03,.25-.07,.5-.1,.75-.19,1.75-.79,3.31-1.87,4.59-4.12,4.9-8.27,9.77-12.4,14.66-.06,.07-.12,.13-.21,.23-.05-.07-.08-.12-.12-.17-4.12-4.91-8.23-9.81-12.35-14.72-.87-1.04-1.47-2.26-1.77-3.65-.1-.45-.15-.91-.22-1.36,0-.42,0-.84,0-1.26,.01-.08,.04-.16,.04-.24,.42-4.57,4.1-7.86,8.13-7.27,3.21,.47,5.75,3.25,6.25,6.86,.01,.08,.04,.15,.06,.23,.02,0,.04,0,.07,0,.02-.07,.04-.15,.05-.22,.6-4.37,4.19-7.42,8.09-6.86,2.88,.41,5.27,2.73,6.05,5.88,.13,.53,.19,1.08,.29,1.62Z"/><path class="cls-2" d="M245.63,604.1v.93c-.03,.25-.07,.5-.1,.75-.19,1.75-.79,3.31-1.87,4.59-4.12,4.9-8.27,9.77-12.4,14.66-.06,.07-.12,.13-.21,.23-.05-.07-.08-.12-.12-.17-4.12-4.91-8.23-9.81-12.35-14.72-.87-1.04-1.47-2.26-1.77-3.65-.1-.45-.15-.91-.22-1.36,0-.42,0-.84,0-1.26,.01-.08,.04-.16,.04-.24,.42-4.57,4.1-7.86,8.13-7.27,3.21,.47,5.75,3.25,6.25,6.86,.01,.08,.04,.15,.06,.23,.02,0,.04,0,.07,0,.02-.07,.04-.15,.05-.22,.6-4.37,4.19-7.42,8.09-6.86,2.88,.41,5.27,2.73,6.05,5.88,.13,.53,.19,1.08,.29,1.62Z"/><path class="cls-2" d="M42.43,662.16v.93c-.03,.25-.07,.5-.1,.75-.19,1.75-.79,3.31-1.87,4.59-4.12,4.9-8.27,9.77-12.4,14.66-.06,.07-.12,.13-.21,.23-.05-.07-.08-.12-.12-.17-4.12-4.91-8.23-9.81-12.35-14.72-.87-1.04-1.47-2.26-1.77-3.65-.1-.45-.15-.91-.22-1.36,0-.42,0-.84,0-1.26,.01-.08,.04-.16,.04-.24,.42-4.57,4.1-7.86,8.13-7.27,3.21,.47,5.75,3.25,6.25,6.86,.01,.08,.04,.15,.06,.23,.02,0,.04,0,.07,0,.02-.07,.04-.15,.05-.22,.6-4.37,4.19-7.42,8.09-6.86,2.88,.41,5.27,2.73,6.05,5.88,.13,.53,.19,1.08,.29,1.62Z"/><path class="cls-2" d="M100.49,662.16v.93c-.03,.25-.07,.5-.1,.75-.19,1.75-.79,3.31-1.87,4.59-4.12,4.9-8.27,9.77-12.4,14.66-.06,.07-.12,.13-.21,.23-.05-.07-.08-.12-.12-.17-4.12-4.91-8.23-9.81-12.35-14.72-.87-1.04-1.47-2.26-1.77-3.65-.1-.45-.15-.91-.22-1.36,0-.42,0-.84,0-1.26,.01-.08,.04-.16,.04-.24,.42-4.57,4.1-7.86,8.13-7.27,3.21,.47,5.75,3.25,6.25,6.86,.01,.08,.04,.15,.06,.23,.02,0,.04,0,.07,0,.02-.07,.04-.15,.05-.22,.6-4.37,4.19-7.42,8.09-6.86,2.88,.41,5.27,2.73,6.05,5.88,.13,.53,.19,1.08,.29,1.62Z"/><path class="cls-2" d="M158.54,662.16v.93c-.03,.25-.07,.5-.1,.75-.19,1.75-.79,3.31-1.87,4.59-4.12,4.9-8.27,9.77-12.4,14.66-.06,.07-.12,.13-.21,.23-.05-.07-.08-.12-.12-.17-4.12-4.91-8.23-9.81-12.35-14.72-.87-1.04-1.47-2.26-1.77-3.65-.1-.45-.15-.91-.22-1.36,0-.42,0-.84,0-1.26,.01-.08,.04-.16,.04-.24,.42-4.57,4.1-7.86,8.13-7.27,3.21,.47,5.75,3.25,6.25,6.86,.01,.08,.04,.15,.06,.23,.02,0,.04,0,.07,0,.02-.07,.04-.15,.05-.22,.6-4.37,4.19-7.42,8.09-6.86,2.88,.41,5.27,2.73,6.05,5.88,.13,.53,.19,1.08,.29,1.62Z"/><path class="cls-2" d="M216.6,662.16v.93c-.03,.25-.07,.5-.1,.75-.19,1.75-.79,3.31-1.87,4.59-4.12,4.9-8.27,9.77-12.4,14.66-.06,.07-.12,.13-.21,.23-.05-.07-.08-.12-.12-.17-4.12-4.91-8.23-9.81-12.35-14.72-.87-1.04-1.47-2.26-1.77-3.65-.1-.45-.15-.91-.22-1.36,0-.42,0-.84,0-1.26,.01-.08,.04-.16,.04-.24,.42-4.57,4.1-7.86,8.13-7.27,3.21,.47,5.75,3.25,6.25,6.86,.01,.08,.04,.15,.06,.23,.02,0,.04,0,.07,0,.02-.07,.04-.15,.05-.22,.6-4.37,4.19-7.42,8.09-6.86,2.88,.41,5.27,2.73,6.05,5.88,.13,.53,.19,1.08,.29,1.62Z"/><path class="cls-2" d="M274.66,662.16v.93c-.03,.25-.07,.5-.1,.75-.19,1.75-.79,3.31-1.87,4.59-4.12,4.9-8.27,9.77-12.4,14.66-.06,.07-.12,.13-.21,.23-.05-.07-.08-.12-.12-.17-4.12-4.91-8.23-9.81-12.35-14.72-.87-1.04-1.47-2.26-1.77-3.65-.1-.45-.15-.91-.22-1.36,0-.42,0-.84,0-1.26,.01-.08,.04-.16,.04-.24,.42-4.57,4.1-7.86,8.13-7.27,3.21,.47,5.75,3.25,6.25,6.86,.01,.08,.04,.15,.06,.23,.02,0,.04,0,.07,0,.02-.07,.04-.15,.05-.22,.6-4.37,4.19-7.42,8.09-6.86,2.88,.41,5.27,2.73,6.05,5.88,.13,.53,.19,1.08,.29,1.62Z"/><path class="cls-2" d="M71.46,720.22v.93c-.03,.25-.07,.5-.1,.75-.19,1.75-.79,3.31-1.87,4.59-4.12,4.9-8.27,9.77-12.4,14.66-.06,.07-.12,.13-.21,.23-.05-.07-.08-.12-.12-.17-4.12-4.91-8.23-9.81-12.35-14.72-.87-1.04-1.47-2.26-1.77-3.65-.1-.45-.15-.91-.22-1.36,0-.42,0-.84,0-1.26,.01-.08,.04-.16,.04-.24,.42-4.57,4.1-7.86,8.13-7.27,3.21,.47,5.75,3.25,6.25,6.86,.01,.08,.04,.15,.06,.23,.02,0,.04,0,.07,0,.02-.07,.04-.15,.05-.22,.6-4.37,4.19-7.42,8.09-6.86,2.88,.41,5.27,2.73,6.05,5.88,.13,.53,.19,1.08,.29,1.62Z"/><path class="cls-2" d="M129.51,720.22v.93c-.03,.25-.07,.5-.1,.75-.19,1.75-.79,3.31-1.87,4.59-4.12,4.9-8.27,9.77-12.4,14.66-.06,.07-.12,.13-.21,.23-.05-.07-.08-.12-.12-.17-4.12-4.91-8.23-9.81-12.35-14.72-.87-1.04-1.47-2.26-1.77-3.65-.1-.45-.15-.91-.22-1.36,0-.42,0-.84,0-1.26,.01-.08,.04-.16,.04-.24,.42-4.57,4.1-7.86,8.13-7.27,3.21,.47,5.75,3.25,6.25,6.86,.01,.08,.04,.15,.06,.23,.02,0,.04,0,.07,0,.02-.07,.04-.15,.05-.22,.6-4.37,4.19-7.42,8.09-6.86,2.88,.41,5.27,2.73,6.05,5.88,.13,.53,.19,1.08,.29,1.62Z"/><path class="cls-2" d="M187.57,720.22v.93c-.03,.25-.07,.5-.1,.75-.19,1.75-.79,3.31-1.87,4.59-4.12,4.9-8.27,9.77-12.4,14.66-.06,.07-.12,.13-.21,.23-.05-.07-.08-.12-.12-.17-4.12-4.91-8.23-9.81-12.35-14.72-.87-1.04-1.47-2.26-1.77-3.65-.1-.45-.15-.91-.22-1.36,0-.42,0-.84,0-1.26,.01-.08,.04-.16,.04-.24,.42-4.57,4.1-7.86,8.13-7.27,3.21,.47,5.75,3.25,6.25,6.86,.01,.08,.04,.15,.06,.23,.02,0,.04,0,.07,0,.02-.07,.04-.15,.05-.22,.6-4.37,4.19-7.42,8.09-6.86,2.88,.41,5.27,2.73,6.05,5.88,.13,.53,.19,1.08,.29,1.62Z"/><path class="cls-2" d="M245.63,720.22v.93c-.03,.25-.07,.5-.1,.75-.19,1.75-.79,3.31-1.87,4.59-4.12,4.9-8.27,9.77-12.4,14.66-.06,.07-.12,.13-.21,.23-.05-.07-.08-.12-.12-.17-4.12-4.91-8.23-9.81-12.35-14.72-.87-1.04-1.47-2.26-1.77-3.65-.1-.45-.15-.91-.22-1.36,0-.42,0-.84,0-1.26,.01-.08,.04-.16,.04-.24,.42-4.57,4.1-7.86,8.13-7.27,3.21,.47,5.75,3.25,6.25,6.86,.01,.08,.04,.15,.06,.23,.02,0,.04,0,.07,0,.02-.07,.04-.15,.05-.22,.6-4.37,4.19-7.42,8.09-6.86,2.88,.41,5.27,2.73,6.05,5.88,.13,.53,.19,1.08,.29,1.62Z"/><path class="cls-2" d="M42.43,778.28v.93c-.03,.25-.07,.5-.1,.75-.19,1.75-.79,3.31-1.87,4.59-4.12,4.9-8.27,9.77-12.4,14.66-.06,.07-.12,.13-.21,.23-.05-.07-.08-.12-.12-.17-4.12-4.91-8.23-9.81-12.35-14.72-.87-1.04-1.47-2.26-1.77-3.65-.1-.45-.15-.91-.22-1.36,0-.42,0-.84,0-1.26,.01-.08,.04-.16,.04-.24,.42-4.57,4.1-7.86,8.13-7.27,3.21,.47,5.75,3.25,6.25,6.86,.01,.08,.04,.15,.06,.23,.02,0,.04,0,.07,0,.02-.07,.04-.15,.05-.22,.6-4.37,4.19-7.42,8.09-6.86,2.88,.41,5.27,2.73,6.05,5.88,.13,.53,.19,1.08,.29,1.62Z"/><path class="cls-2" d="M100.49,778.28v.93c-.03,.25-.07,.5-.1,.75-.19,1.75-.79,3.31-1.87,4.59-4.12,4.9-8.27,9.77-12.4,14.66-.06,.07-.12,.13-.21,.23-.05-.07-.08-.12-.12-.17-4.12-4.91-8.23-9.81-12.35-14.72-.87-1.04-1.47-2.26-1.77-3.65-.1-.45-.15-.91-.22-1.36,0-.42,0-.84,0-1.26,.01-.08,.04-.16,.04-.24,.42-4.57,4.1-7.86,8.13-7.27,3.21,.47,5.75,3.25,6.25,6.86,.01,.08,.04,.15,.06,.23,.02,0,.04,0,.07,0,.02-.07,.04-.15,.05-.22,.6-4.37,4.19-7.42,8.09-6.86,2.88,.41,5.27,2.73,6.05,5.88,.13,.53,.19,1.08,.29,1.62Z"/><path class="cls-2" d="M158.54,778.28v.93c-.03,.25-.07,.5-.1,.75-.19,1.75-.79,3.31-1.87,4.59-4.12,4.9-8.27,9.77-12.4,14.66-.06,.07-.12,.13-.21,.23-.05-.07-.08-.12-.12-.17-4.12-4.91-8.23-9.81-12.35-14.72-.87-1.04-1.47-2.26-1.77-3.65-.1-.45-.15-.91-.22-1.36,0-.42,0-.84,0-1.26,.01-.08,.04-.16,.04-.24,.42-4.57,4.1-7.86,8.13-7.27,3.21,.47,5.75,3.25,6.25,6.86,.01,.08,.04,.15,.06,.23,.02,0,.04,0,.07,0,.02-.07,.04-.15,.05-.22,.6-4.37,4.19-7.42,8.09-6.86,2.88,.41,5.27,2.73,6.05,5.88,.13,.53,.19,1.08,.29,1.62Z"/><path class="cls-2" d="M216.6,778.28v.93c-.03,.25-.07,.5-.1,.75-.19,1.75-.79,3.31-1.87,4.59-4.12,4.9-8.27,9.77-12.4,14.66-.06,.07-.12,.13-.21,.23-.05-.07-.08-.12-.12-.17-4.12-4.91-8.23-9.81-12.35-14.72-.87-1.04-1.47-2.26-1.77-3.65-.1-.45-.15-.91-.22-1.36,0-.42,0-.84,0-1.26,.01-.08,.04-.16,.04-.24,.42-4.57,4.1-7.86,8.13-7.27,3.21,.47,5.75,3.25,6.25,6.86,.01,.08,.04,.15,.06,.23,.02,0,.04,0,.07,0,.02-.07,.04-.15,.05-.22,.6-4.37,4.19-7.42,8.09-6.86,2.88,.41,5.27,2.73,6.05,5.88,.13,.53,.19,1.08,.29,1.62Z"/><path class="cls-2" d="M274.66,778.28v.93c-.03,.25-.07,.5-.1,.75-.19,1.75-.79,3.31-1.87,4.59-4.12,4.9-8.27,9.77-12.4,14.66-.06,.07-.12,.13-.21,.23-.05-.07-.08-.12-.12-.17-4.12-4.91-8.23-9.81-12.35-14.72-.87-1.04-1.47-2.26-1.77-3.65-.1-.45-.15-.91-.22-1.36,0-.42,0-.84,0-1.26,.01-.08,.04-.16,.04-.24,.42-4.57,4.1-7.86,8.13-7.27,3.21,.47,5.75,3.25,6.25,6.86,.01,.08,.04,.15,.06,.23,.02,0,.04,0,.07,0,.02-.07,.04-.15,.05-.22,.6-4.37,4.19-7.42,8.09-6.86,2.88,.41,5.27,2.73,6.05,5.88,.13,.53,.19,1.08,.29,1.62Z"/><path class="cls-2" d="M71.46,836.34v.93c-.03,.25-.07,.5-.1,.75-.19,1.75-.79,3.31-1.87,4.59-4.12,4.9-8.27,9.77-12.4,14.66-.06,.07-.12,.13-.21,.23-.05-.07-.08-.12-.12-.17-4.12-4.91-8.23-9.81-12.35-14.72-.87-1.04-1.47-2.26-1.77-3.65-.1-.45-.15-.91-.22-1.36,0-.42,0-.84,0-1.26,.01-.08,.04-.16,.04-.24,.42-4.57,4.1-7.86,8.13-7.27,3.21,.47,5.75,3.25,6.25,6.86,.01,.08,.04,.15,.06,.23,.02,0,.04,0,.07,0,.02-.07,.04-.15,.05-.22,.6-4.37,4.19-7.42,8.09-6.86,2.88,.41,5.27,2.73,6.05,5.88,.13,.53,.19,1.08,.29,1.62Z"/><path class="cls-2" d="M129.51,836.34v.93c-.03,.25-.07,.5-.1,.75-.19,1.75-.79,3.31-1.87,4.59-4.12,4.9-8.27,9.77-12.4,14.66-.06,.07-.12,.13-.21,.23-.05-.07-.08-.12-.12-.17-4.12-4.91-8.23-9.81-12.35-14.72-.87-1.04-1.47-2.26-1.77-3.65-.1-.45-.15-.91-.22-1.36,0-.42,0-.84,0-1.26,.01-.08,.04-.16,.04-.24,.42-4.57,4.1-7.86,8.13-7.27,3.21,.47,5.75,3.25,6.25,6.86,.01,.08,.04,.15,.06,.23,.02,0,.04,0,.07,0,.02-.07,.04-.15,.05-.22,.6-4.37,4.19-7.42,8.09-6.86,2.88,.41,5.27,2.73,6.05,5.88,.13,.53,.19,1.08,.29,1.62Z"/><path class="cls-2" d="M187.57,836.34v.93c-.03,.25-.07,.5-.1,.75-.19,1.75-.79,3.31-1.87,4.59-4.12,4.9-8.27,9.77-12.4,14.66-.06,.07-.12,.13-.21,.23-.05-.07-.08-.12-.12-.17-4.12-4.91-8.23-9.81-12.35-14.72-.87-1.04-1.47-2.26-1.77-3.65-.1-.45-.15-.91-.22-1.36,0-.42,0-.84,0-1.26,.01-.08,.04-.16,.04-.24,.42-4.57,4.1-7.86,8.13-7.27,3.21,.47,5.75,3.25,6.25,6.86,.01,.08,.04,.15,.06,.23,.02,0,.04,0,.07,0,.02-.07,.04-.15,.05-.22,.6-4.37,4.19-7.42,8.09-6.86,2.88,.41,5.27,2.73,6.05,5.88,.13,.53,.19,1.08,.29,1.62Z"/><path class="cls-2" d="M245.63,836.34v.93c-.03,.25-.07,.5-.1,.75-.19,1.75-.79,3.31-1.87,4.59-4.12,4.9-8.27,9.77-12.4,14.66-.06,.07-.12,.13-.21,.23-.05-.07-.08-.12-.12-.17-4.12-4.91-8.23-9.81-12.35-14.72-.87-1.04-1.47-2.26-1.77-3.65-.1-.45-.15-.91-.22-1.36,0-.42,0-.84,0-1.26,.01-.08,.04-.16,.04-.24,.42-4.57,4.1-7.86,8.13-7.27,3.21,.47,5.75,3.25,6.25,6.86,.01,.08,.04,.15,.06,.23,.02,0,.04,0,.07,0,.02-.07,.04-.15,.05-.22,.6-4.37,4.19-7.42,8.09-6.86,2.88,.41,5.27,2.73,6.05,5.88,.13,.53,.19,1.08,.29,1.62Z"/><path class="cls-2" d="M42.43,894.4v.93c-.03,.25-.07,.5-.1,.75-.19,1.75-.79,3.31-1.87,4.59-4.12,4.9-8.27,9.77-12.4,14.66-.06,.07-.12,.13-.21,.23-.05-.07-.08-.12-.12-.17-4.12-4.91-8.23-9.81-12.35-14.72-.87-1.04-1.47-2.26-1.77-3.65-.1-.45-.15-.91-.22-1.36,0-.42,0-.84,0-1.26,.01-.08,.04-.16,.04-.24,.42-4.57,4.1-7.86,8.13-7.27,3.21,.47,5.75,3.25,6.25,6.86,.01,.08,.04,.15,.06,.23,.02,0,.04,0,.07,0,.02-.07,.04-.15,.05-.22,.6-4.37,4.19-7.42,8.09-6.86,2.88,.41,5.27,2.73,6.05,5.88,.13,.53,.19,1.08,.29,1.62Z"/><path class="cls-2" d="M100.49,894.4v.93c-.03,.25-.07,.5-.1,.75-.19,1.75-.79,3.31-1.87,4.59-4.12,4.9-8.27,9.77-12.4,14.66-.06,.07-.12,.13-.21,.23-.05-.07-.08-.12-.12-.17-4.12-4.91-8.23-9.81-12.35-14.72-.87-1.04-1.47-2.26-1.77-3.65-.1-.45-.15-.91-.22-1.36,0-.42,0-.84,0-1.26,.01-.08,.04-.16,.04-.24,.42-4.57,4.1-7.86,8.13-7.27,3.21,.47,5.75,3.25,6.25,6.86,.01,.08,.04,.15,.06,.23,.02,0,.04,0,.07,0,.02-.07,.04-.15,.05-.22,.6-4.37,4.19-7.42,8.09-6.86,2.88,.41,5.27,2.73,6.05,5.88,.13,.53,.19,1.08,.29,1.62Z"/><path class="cls-2" d="M158.54,894.4v.93c-.03,.25-.07,.5-.1,.75-.19,1.75-.79,3.31-1.87,4.59-4.12,4.9-8.27,9.77-12.4,14.66-.06,.07-.12,.13-.21,.23-.05-.07-.08-.12-.12-.17-4.12-4.91-8.23-9.81-12.35-14.72-.87-1.04-1.47-2.26-1.77-3.65-.1-.45-.15-.91-.22-1.36,0-.42,0-.84,0-1.26,.01-.08,.04-.16,.04-.24,.42-4.57,4.1-7.86,8.13-7.27,3.21,.47,5.75,3.25,6.25,6.86,.01,.08,.04,.15,.06,.23,.02,0,.04,0,.07,0,.02-.07,.04-.15,.05-.22,.6-4.37,4.19-7.42,8.09-6.86,2.88,.41,5.27,2.73,6.05,5.88,.13,.53,.19,1.08,.29,1.62Z"/><path class="cls-2" d="M216.6,894.4v.93c-.03,.25-.07,.5-.1,.75-.19,1.75-.79,3.31-1.87,4.59-4.12,4.9-8.27,9.77-12.4,14.66-.06,.07-.12,.13-.21,.23-.05-.07-.08-.12-.12-.17-4.12-4.91-8.23-9.81-12.35-14.72-.87-1.04-1.47-2.26-1.77-3.65-.1-.45-.15-.91-.22-1.36,0-.42,0-.84,0-1.26,.01-.08,.04-.16,.04-.24,.42-4.57,4.1-7.86,8.13-7.27,3.21,.47,5.75,3.25,6.25,6.86,.01,.08,.04,.15,.06,.23,.02,0,.04,0,.07,0,.02-.07,.04-.15,.05-.22,.6-4.37,4.19-7.42,8.09-6.86,2.88,.41,5.27,2.73,6.05,5.88,.13,.53,.19,1.08,.29,1.62Z"/><path class="cls-2" d="M274.66,894.4v.93c-.03,.25-.07,.5-.1,.75-.19,1.75-.79,3.31-1.87,4.59-4.12,4.9-8.27,9.77-12.4,14.66-.06,.07-.12,.13-.21,.23-.05-.07-.08-.12-.12-.17-4.12-4.91-8.23-9.81-12.35-14.72-.87-1.04-1.47-2.26-1.77-3.65-.1-.45-.15-.91-.22-1.36,0-.42,0-.84,0-1.26,.01-.08,.04-.16,.04-.24,.42-4.57,4.1-7.86,8.13-7.27,3.21,.47,5.75,3.25,6.25,6.86,.01,.08,.04,.15,.06,.23,.02,0,.04,0,.07,0,.02-.07,.04-.15,.05-.22,.6-4.37,4.19-7.42,8.09-6.86,2.88,.41,5.27,2.73,6.05,5.88,.13,.53,.19,1.08,.29,1.62Z"/><path class="cls-2" d="M71.46,952.46v.93c-.03,.25-.07,.5-.1,.75-.19,1.75-.79,3.31-1.87,4.59-4.12,4.9-8.27,9.77-12.4,14.66-.06,.07-.12,.13-.21,.23-.05-.07-.08-.12-.12-.17-4.12-4.91-8.23-9.81-12.35-14.72-.87-1.04-1.47-2.26-1.77-3.65-.1-.45-.15-.91-.22-1.36,0-.42,0-.84,0-1.26,.01-.08,.04-.16,.04-.24,.42-4.57,4.1-7.86,8.13-7.27,3.21,.47,5.75,3.25,6.25,6.86,.01,.08,.04,.15,.06,.23,.02,0,.04,0,.07,0,.02-.07,.04-.15,.05-.22,.6-4.37,4.19-7.42,8.09-6.86,2.88,.41,5.27,2.73,6.05,5.88,.13,.53,.19,1.08,.29,1.62Z"/><path class="cls-2" d="M129.51,952.46v.93c-.03,.25-.07,.5-.1,.75-.19,1.75-.79,3.31-1.87,4.59-4.12,4.9-8.27,9.77-12.4,14.66-.06,.07-.12,.13-.21,.23-.05-.07-.08-.12-.12-.17-4.12-4.91-8.23-9.81-12.35-14.72-.87-1.04-1.47-2.26-1.77-3.65-.1-.45-.15-.91-.22-1.36,0-.42,0-.84,0-1.26,.01-.08,.04-.16,.04-.24,.42-4.57,4.1-7.86,8.13-7.27,3.21,.47,5.75,3.25,6.25,6.86,.01,.08,.04,.15,.06,.23,.02,0,.04,0,.07,0,.02-.07,.04-.15,.05-.22,.6-4.37,4.19-7.42,8.09-6.86,2.88,.41,5.27,2.73,6.05,5.88,.13,.53,.19,1.08,.29,1.62Z"/><path class="cls-2" d="M187.57,952.46v.93c-.03,.25-.07,.5-.1,.75-.19,1.75-.79,3.31-1.87,4.59-4.12,4.9-8.27,9.77-12.4,14.66-.06,.07-.12,.13-.21,.23-.05-.07-.08-.12-.12-.17-4.12-4.91-8.23-9.81-12.35-14.72-.87-1.04-1.47-2.26-1.77-3.65-.1-.45-.15-.91-.22-1.36,0-.42,0-.84,0-1.26,.01-.08,.04-.16,.04-.24,.42-4.57,4.1-7.86,8.13-7.27,3.21,.47,5.75,3.25,6.25,6.86,.01,.08,.04,.15,.06,.23,.02,0,.04,0,.07,0,.02-.07,.04-.15,.05-.22,.6-4.37,4.19-7.42,8.09-6.86,2.88,.41,5.27,2.73,6.05,5.88,.13,.53,.19,1.08,.29,1.62Z"/><path class="cls-2" d="M245.63,952.46v.93c-.03,.25-.07,.5-.1,.75-.19,1.75-.79,3.31-1.87,4.59-4.12,4.9-8.27,9.77-12.4,14.66-.06,.07-.12,.13-.21,.23-.05-.07-.08-.12-.12-.17-4.12-4.91-8.23-9.81-12.35-14.72-.87-1.04-1.47-2.26-1.77-3.65-.1-.45-.15-.91-.22-1.36,0-.42,0-.84,0-1.26,.01-.08,.04-.16,.04-.24,.42-4.57,4.1-7.86,8.13-7.27,3.21,.47,5.75,3.25,6.25,6.86,.01,.08,.04,.15,.06,.23,.02,0,.04,0,.07,0,.02-.07,.04-.15,.05-.22,.6-4.37,4.19-7.42,8.09-6.86,2.88,.41,5.27,2.73,6.05,5.88,.13,.53,.19,1.08,.29,1.62Z"/><path class="cls-2" d="M42.43,1010.52v.93c-.03,.25-.07,.5-.1,.75-.19,1.75-.79,3.31-1.87,4.59-4.12,4.9-8.27,9.77-12.4,14.66-.06,.07-.12,.13-.21,.23-.05-.07-.08-.12-.12-.17-4.12-4.91-8.23-9.81-12.35-14.72-.87-1.04-1.47-2.26-1.77-3.65-.1-.45-.15-.91-.22-1.36,0-.42,0-.84,0-1.26,.01-.08,.04-.16,.04-.24,.42-4.57,4.1-7.86,8.13-7.27,3.21,.47,5.75,3.25,6.25,6.86,.01,.08,.04,.15,.06,.23,.02,0,.04,0,.07,0,.02-.07,.04-.15,.05-.22,.6-4.37,4.19-7.42,8.09-6.86,2.88,.41,5.27,2.73,6.05,5.88,.13,.53,.19,1.08,.29,1.62Z"/><path class="cls-2" d="M100.49,1010.52v.93c-.03,.25-.07,.5-.1,.75-.19,1.75-.79,3.31-1.87,4.59-4.12,4.9-8.27,9.77-12.4,14.66-.06,.07-.12,.13-.21,.23-.05-.07-.08-.12-.12-.17-4.12-4.91-8.23-9.81-12.35-14.72-.87-1.04-1.47-2.26-1.77-3.65-.1-.45-.15-.91-.22-1.36,0-.42,0-.84,0-1.26,.01-.08,.04-.16,.04-.24,.42-4.57,4.1-7.86,8.13-7.27,3.21,.47,5.75,3.25,6.25,6.86,.01,.08,.04,.15,.06,.23,.02,0,.04,0,.07,0,.02-.07,.04-.15,.05-.22,.6-4.37,4.19-7.42,8.09-6.86,2.88,.41,5.27,2.73,6.05,5.88,.13,.53,.19,1.08,.29,1.62Z"/><path class="cls-2" d="M158.54,1010.52v.93c-.03,.25-.07,.5-.1,.75-.19,1.75-.79,3.31-1.87,4.59-4.12,4.9-8.27,9.77-12.4,14.66-.06,.07-.12,.13-.21,.23-.05-.07-.08-.12-.12-.17-4.12-4.91-8.23-9.81-12.35-14.72-.87-1.04-1.47-2.26-1.77-3.65-.1-.45-.15-.91-.22-1.36,0-.42,0-.84,0-1.26,.01-.08,.04-.16,.04-.24,.42-4.57,4.1-7.86,8.13-7.27,3.21,.47,5.75,3.25,6.25,6.86,.01,.08,.04,.15,.06,.23,.02,0,.04,0,.07,0,.02-.07,.04-.15,.05-.22,.6-4.37,4.19-7.42,8.09-6.86,2.88,.41,5.27,2.73,6.05,5.88,.13,.53,.19,1.08,.29,1.62Z"/><path class="cls-2" d="M216.6,1010.52v.93c-.03,.25-.07,.5-.1,.75-.19,1.75-.79,3.31-1.87,4.59-4.12,4.9-8.27,9.77-12.4,14.66-.06,.07-.12,.13-.21,.23-.05-.07-.08-.12-.12-.17-4.12-4.91-8.23-9.81-12.35-14.72-.87-1.04-1.47-2.26-1.77-3.65-.1-.45-.15-.91-.22-1.36,0-.42,0-.84,0-1.26,.01-.08,.04-.16,.04-.24,.42-4.57,4.1-7.86,8.13-7.27,3.21,.47,5.75,3.25,6.25,6.86,.01,.08,.04,.15,.06,.23,.02,0,.04,0,.07,0,.02-.07,.04-.15,.05-.22,.6-4.37,4.19-7.42,8.09-6.86,2.88,.41,5.27,2.73,6.05,5.88,.13,.53,.19,1.08,.29,1.62Z"/><path class="cls-2" d="M274.66,1010.52v.93c-.03,.25-.07,.5-.1,.75-.19,1.75-.79,3.31-1.87,4.59-4.12,4.9-8.27,9.77-12.4,14.66-.06,.07-.12,.13-.21,.23-.05-.07-.08-.12-.12-.17-4.12-4.91-8.23-9.81-12.35-14.72-.87-1.04-1.47-2.26-1.77-3.65-.1-.45-.15-.91-.22-1.36,0-.42,0-.84,0-1.26,.01-.08,.04-.16,.04-.24,.42-4.57,4.1-7.86,8.13-7.27,3.21,.47,5.75,3.25,6.25,6.86,.01,.08,.04,.15,.06,.23,.02,0,.04,0,.07,0,.02-.07,.04-.15,.05-.22,.6-4.37,4.19-7.42,8.09-6.86,2.88,.41,5.27,2.73,6.05,5.88,.13,.53,.19,1.08,.29,1.62Z"/></g></g></g></svg>